
        <svg xmlns="http://www.w3.org/2000/svg" xmlns:xlink="http://www.w3.org/1999/xlink" version="1.1" width="3173.913043478261" 
        height="1203.425254589561" viewBox="0 -17.391304347826086 3173.913043478261 1203.425254589561">
			
			<g transform="scale(8.695652173913043) translate(10, 10)">
				<defs id="SvgjsDefs1748"></defs><g id="SvgjsG1749" featureKey="5TMTKC-0" transform="matrix(1.8623023547788768,0,0,1.8623023547788768,-10.615123067033613,-36.82505545518894)" fill="#ffffff"><path xmlns="http://www.w3.org/2000/svg" d="M94.3,71.1H53.7v-2.3h32.9v-1.7H53.7V47.7L83,63.2l0.8-1.5L53.7,45.7v-2.7l29.1,15.4l0.8-1.5L53.7,41.1V31  H52v9.2l-5.4-2.9V18.7h-1.7v17.7l-13.4-7.1v0l0,0l0,0l0,0L5.7,43.5v6.6l5.7-3.1v25.8h20.1v0H52v8.4h1.7v-8.4h40.6V71.1z M52,67.1  h-5.4V43.9l5.4,2.9V67.1z M52,42.2v2.7L46.5,42v-2.7L52,42.2z M44.8,38.4V41L31.4,34v-2.7L44.8,38.4z M17.2,43.8L31.4,36v0L44.8,43  v24h-9.1V57H28v10.1h-4.3h-6.5V43.8z M44.8,68.8v2.3h-9.1v-2.3H44.8z M46.5,71.1v-2.3H52v2.3H46.5z"></path></g><g id="SvgjsG1750" featureKey="7UBp9i-0" transform="matrix(2.905920942508782,0,0,2.905920942508782,184.18634291206214,-0.3893937277672279)" fill="#ffffff"><path d="M9.54 15.82 l-5.76 0 l-1.5 4.18 l-2 0 l5.4 -14.36 l2.2 0 l5.2 14.36 l-2.12 0 z M4.38 14.1 l4.46 0 l-2.12 -6.32 l-0.04 0 z M14.64 20 l0 -10.46 l1.66 0 l0 1.48 l0.04 0 c0.38 -0.56 1.28 -1.78 3.16 -1.78 s2.48 1.14 2.78 1.7 c0.88 -0.98 1.58 -1.7 3.2 -1.7 c1.12 0 3.24 0.58 3.24 3.52 l0 7.24 l-1.76 0 l0 -6.76 c0 -1.44 -0.44 -2.42 -1.94 -2.42 c-1.48 0 -2.46 1.4 -2.46 2.8 l0 6.38 l-1.76 0 l0 -7.24 c0 -0.88 -0.34 -1.94 -1.64 -1.94 c-1 0 -2.76 0.64 -2.76 3.48 l0 5.7 l-1.76 0 z M32.84 15.26 c0 2.78 1.74 3.52 2.86 3.52 c1.92 0 2.82 -1.74 2.82 -4.04 c0 -1.34 -0.14 -3.92 -2.86 -3.92 c-2.54 0 -2.82 2.74 -2.82 4.44 z M31.16 24.14 l0 -14.6 l1.66 0 l0 1.48 l0.04 0 c0.42 -0.6 1.22 -1.78 3.12 -1.78 c2.78 0 4.36 2.28 4.36 5.22 c0 2.5 -1.04 5.84 -4.6 5.84 c-1.4 0 -2.32 -0.66 -2.78 -1.4 l-0.04 0 l0 5.24 l-1.76 0 z M44.220000000000006 5.640000000000001 l0 14.36 l-1.76 0 l0 -14.36 l1.76 0 z M50.6 18.06 l2.8 -8.52 l1.94 0 c-1.22 3.42 -2.42 6.84 -3.76 10.26 c-1.66 4.24 -1.84 4.48 -4.1 4.48 c-0.26 0 -0.46 -0.08 -0.74 -0.16 l0 -1.6 c0.22 0.08 0.58 0.18 1.06 0.18 c0.92 0 1.02 -0.26 1.86 -2.42 l-3.88 -10.74 l2 0 l2.78 8.52 l0.04 0 z"></path></g><g id="SvgjsG1751" featureKey="sloganFeature-0" transform="matrix(1.366645209920113,0,0,1.366645209920113,190.6493711773382,72.81144783802159)" fill="#ffffff"><path d="M12.32 18.28 l0 1.72 l-10.6 0 l0 -14.36 l10.46 0 l0 1.72 l-8.52 0 l0 4.4 l7.86 0 l0 1.72 l-7.86 0 l0 4.8 l8.66 0 z M28.9615 17.240000000000002 l0 -11.6 l1.88 0 l0 14.36 l-2.18 0 l-7.3 -11.6 l-0.04 0 l0 11.6 l-1.88 0 l0 -14.36 l2.3 0 l7.18 11.6 l0.04 0 z M49.263 18.28 l0 1.72 l-10.6 0 l0 -14.36 l10.46 0 l0 1.72 l-8.52 0 l0 4.4 l7.86 0 l0 1.72 l-7.86 0 l0 4.8 l8.66 0 z M58.5645 13.84 l0 6.16 l-1.94 0 l0 -14.36 l6.64 0 c2.36 0 4.72 0.82 4.72 3.86 c0 2.12 -1.08 2.9 -2 3.44 c0.82 0.34 1.64 0.7 1.72 2.7 l0.12 2.6 c0.02 0.8 0.12 1.1 0.72 1.44 l0 0.32 l-2.38 0 c-0.28 -0.88 -0.34 -3.06 -0.34 -3.6 c0 -1.18 -0.24 -2.56 -2.56 -2.56 l-4.7 0 z M58.5645 7.300000000000001 l0 4.88 l4.5 0 c1.42 0 2.92 -0.36 2.92 -2.48 c0 -2.22 -1.62 -2.4 -2.58 -2.4 l-4.84 0 z M81.666 13.98 l0 -1.66 l6.3 0 l0 7.68 l-1.26 0 l-0.46 -1.86 c-0.98 1.36 -2.78 2.24 -4.74 2.24 c-2.46 0 -3.66 -0.9 -4.4 -1.62 c-2.2 -2.08 -2.26 -4.54 -2.26 -6.06 c0 -3.5 2.12 -7.44 6.8 -7.44 c2.68 0 5.66 1.52 6.08 4.74 l-1.88 0 c-0.62 -2.5 -2.72 -3.02 -4.3 -3.02 c-2.58 0 -4.7 2.06 -4.7 5.82 c0 2.92 0.96 5.92 4.78 5.92 c0.72 0 1.88 -0.08 2.94 -0.92 c1.26 -1 1.58 -2.28 1.58 -3.82 l-4.48 0 z M101.6675 14.219999999999999 l0 5.78 l-1.94 0 l0 -5.78 l-5.42 -8.58 l2.26 0 l4.12 6.9 l4.12 -6.9 l2.28 0 z"></path></g>
			</g>
		</svg>
	